<?xml version="1.0" standalone="no"?><!DOCTYPE svg PUBLIC "-//W3C//DTD SVG 1.1//EN" "http://www.w3.org/Graphics/SVG/1.1/DTD/svg11.dtd"><svg t="1686489538666" class="icon" viewBox="0 0 1024 1024" version="1.1" xmlns="http://www.w3.org/2000/svg" p-id="4838" xmlns:xlink="http://www.w3.org/1999/xlink" width="200" height="200"><path d="M638.494118 782.607059H258.499765c-17.588706 0-31.894588-14.155294-31.894589-31.924706 0-17.588706 14.185412-31.894588 31.924706-31.894588h380.446118c17.618824 0 31.924706 14.185412 31.924706 31.924706a32.587294 32.587294 0 0 1-32.406588 31.894588z m0-159.262118H258.499765c-17.588706 0-31.894588-14.155294-31.894589-31.924706 0-17.588706 14.185412-31.864471 31.924706-31.86447h380.446118c17.618824 0 31.924706 14.155294 31.924706 31.894588 0 17.588706-14.787765 31.894588-32.406588 31.894588z m-252.988236-317.771294c-17.618824 0-31.924706-14.185412-31.924706-31.924706 0-17.588706 14.185412-31.894588 31.924706-31.894588h125.530353c17.588706 0 31.894588 14.185412 31.894589 31.924706 0 17.588706-14.185412 31.894588-31.924706 31.894588H385.505882z m284.912942 126.976c0 17.618824-14.185412 31.924706-31.924706 31.924706H258.499765c-17.588706 0-31.894588-14.185412-31.894589-31.924706 0-17.588706 14.185412-31.894588 31.924706-31.894588h380.446118c17.136941 0 31.412706 14.305882 31.412706 31.924706z m254.464 572.747294H99.147294a95.412706 95.412706 0 0 1-95.593412-95.593412V114.447059A95.713882 95.713882 0 0 1 99.147294 18.823529H829.138824c35.328 0 63.668706 28.491294 63.668705 63.819295v731.979294c0 17.588706-14.155294 31.924706-31.894588 31.924706-17.588706 0-31.924706-14.215529-31.924706-31.924706V146.191059A63.578353 63.578353 0 0 0 765.289412 82.522353H131.011765a63.548235 63.548235 0 0 0-63.698824 63.668706v731.979294a63.548235 63.548235 0 0 0 63.698824 63.698823h761.916235a63.668706 63.668706 0 0 0 63.819294-63.698823V146.191059c0-17.588706 14.155294-31.924706 31.894588-31.924706 17.588706 0 31.894588 14.215529 31.894589 31.924706V909.552941a95.623529 95.623529 0 0 1-95.683765 95.713883z" fill="#38BFD4" p-id="4839"></path></svg>