<?xml version="1.0" standalone="no"?><!DOCTYPE svg PUBLIC "-//W3C//DTD SVG 1.1//EN" "http://www.w3.org/Graphics/SVG/1.1/DTD/svg11.dtd"><svg t="1712634638550" class="icon" viewBox="0 0 1024 1024" version="1.1" xmlns="http://www.w3.org/2000/svg" p-id="8744" xmlns:xlink="http://www.w3.org/1999/xlink" width="200" height="200"><path d="M819.24096 0H204.75904c-112.98304 0-204.75904 91.6736-204.75904 204.75904V450.56h51.2V215.03488C51.2 124.54912 124.47744 51.2 215.03488 51.2h593.93024c90.48576 0 163.83488 73.28256 163.83488 163.83488V450.56h51.2V204.75904C1024 91.776 932.32128 0 819.24096 0zM972.8 808.96512c0 90.48576-73.28256 163.83488-163.83488 163.83488H215.03488c-90.48576 0-163.83488-73.28256-163.83488-163.83488V573.44h-51.2v245.80096c0 112.98304 91.6736 204.75904 204.75904 204.75904h614.48192c112.98304 0 204.75904-91.6736 204.75904-204.75904V573.44h-51.2v235.52512z" fill="#ffffff" p-id="8745"></path><path d="M482.97472 698.8288a25.92768 25.92768 0 0 1-16.3072-5.7856l-145.07008-116.736a26.40384 26.40384 0 0 1-4.08064-36.9664c9.0112-11.32032 25.46688-13.16864 36.68992-4.10112l122.37312 98.48832 187.47392-296.41216a26.07104 26.07104 0 0 1 36.06016-8.06912c12.14976 7.79776 15.74912 24.04864 8.00256 36.28032l-203.13088 321.1008a25.96864 25.96864 0 0 1-17.7408 11.80672 22.0928 22.0928 0 0 1-4.27008 0.39424z" fill="#ffffff" p-id="8746"></path></svg>