<?xml version="1.0" standalone="no"?><!DOCTYPE svg PUBLIC "-//W3C//DTD SVG 1.1//EN" "http://www.w3.org/Graphics/SVG/1.1/DTD/svg11.dtd"><svg t="1712634304168" class="icon" viewBox="0 0 1024 1024" version="1.1" xmlns="http://www.w3.org/2000/svg" p-id="4286" xmlns:xlink="http://www.w3.org/1999/xlink" width="200" height="200"><path d="M1021.019057 645.407752c-7.39828-15.35975-25.599584-22.194839-40.959335-14.796559l-13.670178 6.835088c-34.149845 16.511732-91.05772 43.263297-154.800684 69.451672 42.674507-133.194636 54.066321-248.725558-6.246299-310.19016-89.931339-92.184102-228.220291-54.066321-329.543445-19.916476 33.586654-105.85428 63.742964-245.295214-6.809489-316.410858C404.683472-4.540086 326.143948-15.931901 189.544568 20.496307a30.412306 30.412306 0 0 0-21.631648 37.55459 30.412306 30.412306 0 0 0 37.554589 21.631648c129.789891-34.149845 180.425868-16.486132 219.69563 23.910012 55.192703 55.781494 6.835089 212.860541-22.78363 298.798344-86.500994 29.593119-242.991251 77.950733-298.772745 22.75803-40.396144-39.832953-58.059857-89.931339-23.910011-219.69563a30.591503 30.591503 0 0 0-21.631648-37.554589 30.207509 30.207509 0 0 0-23.321222 2.841553 31.794683 31.794683 0 0 0-14.233368 18.790095c-36.428208 137.162571-25.036393 215.138904 39.832953 279.445059 71.730034 70.552454 211.145369 40.396144 316.436457 6.809489-34.149845 101.323153-72.267626 239.612106 19.353286 329.543445 30.15631 29.593119 72.856416 41.522525 124.081184 41.522526 54.066321 0 117.783686-13.644578 186.108975-35.839418a2867.844598 2867.844598 0 0 1-69.451671 154.800685l-6.835089 14.233368c-7.39828 15.35975-0.563191 33.561055 14.79656 40.959335 7.423879 3.430344 15.948541 3.993535 23.34682 1.151981 7.961471-2.841554 14.233369-8.550261 17.638114-15.948541l6.835088-14.207769c33.023463-69.451671 64.869346-140.029725 91.057721-208.303815 68.29969-26.188374 139.440934-58.059857 208.867006-91.05772l13.644578-6.835089c7.423879-3.404745 13.106987-9.676643 15.948541-17.663713 2.841554-6.809489 2.278363-15.35975-1.151981-22.75803z m-581.622549 116.119713c-72.293225-70.578053-26.188374-203.183898 3.967935-290.811274l6.835089-19.942076 20.479668-6.835089c87.652976-30.15631 219.69563-76.261161 290.273683-3.967936 47.794423 48.946405 18.764495 175.869142-25.061993 296.519982-120.650839 43.263297-247.547977 72.830816-296.494382 25.036393z m256.661429-208.892605l-143.99766 143.99766a31.257092 31.257092 0 0 0 0 43.826488 31.257092 31.257092 0 0 0 43.826488 0l143.99766-143.972061c5.683108-5.708707 9.113452-13.670178 9.113452-21.631648a31.103495 31.103495 0 0 0-30.719501-30.719501 28.748333 28.748333 0 0 0-22.220439 8.524661z m-55.192703-99.019191a31.103495 31.103495 0 0 0-21.631648-9.087853c-7.961471 0-15.948541 3.404745-21.631649 9.087853l-144.560851 143.99766a31.257092 31.257092 0 0 0 0 43.826488 31.257092 31.257092 0 0 0 43.826488 0l143.99766-144.560851c5.683108-5.683108 9.087852-13.670178 9.087852-21.631649 0-7.961471-3.404745-15.922941-9.087852-21.631648zM211.176216 398.986156c5.683108 5.708707 13.644578 9.113452 21.631649 9.113452 7.935871 0 15.922941-2.841554 21.606049-9.113452l143.99766-143.97206a31.257092 31.257092 0 0 0 0-43.826488 31.257092 31.257092 0 0 0-43.826488 0L211.201816 355.159669a31.103495 31.103495 0 0 0-9.113452 21.631648c0 8.550261 2.841554 16.511732 9.113452 22.194839z m-77.413142-89.905739c7.961471 0 15.948541-3.430344 21.631649-9.113451l143.99766-143.997661c7.935871-7.961471 10.803024-19.353286 7.935871-29.593119a30.719501 30.719501 0 0 0-21.606049-21.631648c-10.803024-2.815954-22.194839 0-29.593119 7.98707L112.131426 256.140478a31.743484 31.743484 0 0 0-6.809489 33.586654c4.556726 11.955006 15.922941 19.353286 28.441137 19.353285z" fill="#ACACAC" p-id="4287"></path></svg>